<svg width="32" height="31" viewBox="0 0 32 31" fill="none" xmlns="http://www.w3.org/2000/svg">
<g clip-path="url(#clip0)">
<path d="M24.7428 21.9319C24.7614 19.4003 23.7606 17.3981 21.7645 15.9841C20.2227 14.8955 18.3517 14.3276 16.5421 13.7819C12.7724 12.6391 11.6788 12.0371 11.6788 10.2344C11.6788 8.22636 14.2884 7.51189 16.5225 7.51189C18.1495 7.51189 20.0213 8.01775 21.1838 8.76742L23.4884 5.19819C21.9691 4.21328 19.8898 3.54148 17.8365 3.33296V0H13.5852V3.56668C9.80614 4.39801 7.42552 6.86793 7.42552 10.2344C7.42552 12.5921 8.40524 14.4618 10.3319 15.7806C11.7973 16.7874 13.5845 17.328 15.3108 17.8514C19.0084 18.9691 20.51 19.6501 20.4929 21.9056L20.4928 21.9222C20.4928 23.8153 17.9841 24.4882 15.8348 24.4882C13.8046 24.4882 11.5968 23.5984 10.3453 22.2755L7.25684 25.1969C8.84171 26.8732 11.1444 28.0583 13.5851 28.5228V32.0001H17.8365V28.5977C22.0358 27.9966 24.7386 25.4684 24.7428 21.9319Z" fill="white"/>
</g>
<defs>
<clipPath id="clip0">
<rect width="32" height="32" fill="white"/>
</clipPath>
</defs>
</svg>
