<svg width="35" height="35" viewBox="0 0 35 35" fill="none" xmlns="http://www.w3.org/2000/svg">
<path d="M29.8602 5.1398C26.5458 1.82533 22.1562 0 17.5 0C12.8438 0 8.45421 1.82533 5.1398 5.1398C1.82533 8.45421 0 12.8438 0 17.5C0 22.1562 1.82533 26.5458 5.1398 29.8602C8.45421 33.1747 12.8438 35 17.5 35C22.1562 35 26.5458 33.1747 29.8602 29.8602C33.1747 26.5458 35 22.1562 35 17.5C35 12.8438 33.1747 8.45421 29.8602 5.1398V5.1398ZM17.5 32.9492C8.98126 32.9492 2.05078 26.0187 2.05078 17.5C2.05078 8.98126 8.98126 2.05078 17.5 2.05078C26.0187 2.05078 32.9492 8.98126 32.9492 17.5C32.9492 26.0187 26.0187 32.9492 17.5 32.9492Z" fill="#FF872C"/>
<path d="M17.5 4.16992C10.1498 4.16992 4.16992 10.1498 4.16992 17.5C4.16992 24.8502 10.1498 30.8301 17.5 30.8301C24.8502 30.8301 30.8301 24.8502 30.8301 17.5C30.8301 10.1498 24.8502 4.16992 17.5 4.16992ZM17.5 28.7793C11.2806 28.7793 6.2207 23.7194 6.2207 17.5C6.2207 11.2806 11.2806 6.2207 17.5 6.2207C23.7194 6.2207 28.7793 11.2806 28.7793 17.5C28.7793 23.7194 23.7194 28.7793 17.5 28.7793Z" fill="#FF872C"/>
<path d="M20.5762 14.4135C20.5762 14.9798 21.0353 15.4389 21.6016 15.4389C22.1679 15.4389 22.627 14.9798 22.627 14.4135C22.627 13.2779 22.0396 12.1861 21.0154 11.418C20.3159 10.8934 19.4552 10.5429 18.5254 10.3938V9.2865C18.5254 8.72021 18.0663 8.26111 17.5 8.26111C16.9337 8.26111 16.4746 8.72021 16.4746 9.2865V10.3938C15.5447 10.5429 14.684 10.8934 13.9846 11.418C12.9604 12.1861 12.373 13.2779 12.373 14.4135C12.373 15.5491 12.9604 16.6409 13.9846 17.409C14.6841 17.9337 15.5448 18.2842 16.4746 18.4333V22.4944C15.2934 22.2057 14.4238 21.4392 14.4238 20.5659C14.4238 19.9996 13.9647 19.5405 13.3984 19.5405C12.8321 19.5405 12.373 19.9996 12.373 20.5659C12.373 21.7015 12.9604 22.7932 13.9846 23.5614C14.6841 24.086 15.5448 24.4365 16.4746 24.5856V25.7032C16.4746 26.2695 16.9337 26.7286 17.5 26.7286C18.0663 26.7286 18.5254 26.2695 18.5254 25.7032V24.5856C19.4553 24.4365 20.316 24.086 21.0154 23.5614C22.0396 22.7933 22.627 21.7015 22.627 20.5659C22.627 19.4303 22.0396 18.3384 21.0154 17.5704C20.3159 17.0457 19.4552 16.6952 18.5254 16.5461V12.485C19.7066 12.7737 20.5762 13.5402 20.5762 14.4135ZM14.4238 14.4135C14.4238 13.5402 15.2934 12.7736 16.4746 12.485V16.342C15.2934 16.0534 14.4238 15.2868 14.4238 14.4135ZM20.5762 20.5659C20.5762 21.4392 19.7066 22.2057 18.5254 22.4944V18.6374C19.7066 18.9261 20.5762 19.6926 20.5762 20.5659Z" fill="#FF872C"/>
</svg>
